<?xml version="1.0" encoding="utf-8"?>
<!-- Generator: Adobe Illustrator 23.0.2, SVG Export Plug-In . SVG Version: 6.00 Build 0)  -->
<svg version="1.1" id="baf4e193-26a3-4e33-8217-1f962a842cc8"
	 xmlns="http://www.w3.org/2000/svg" xmlns:xlink="http://www.w3.org/1999/xlink" x="0px" y="0px" viewBox="0 0 955.5 755.5"
	 style="enable-background:new 0 0 955.5 755.5;" xml:space="preserve">
<style type="text/css">
	.st0{fill:#F2F2F2;}
	.st1{fill:#38D39F;}
	.st2{fill:#FFA37C;}
	.st3{fill:#2F2E41;}
	.st4{fill:#EAC8A9;}
	.st5{fill:#D0CDE1;}
</style>
<title>Booked</title>
<path class="st0" d="M913.3,315.7C871.7,152,727.8,33.8,559,29.1c-89.3-2.5-183.2,27.1-251.6,130.7c-122.2,185.2,7.5,313.1,98,373.9
	c43.7,29.4,83.1,64.8,117,105.2C583.5,711.4,701,801.5,841,660.3C942.5,558,941,424.7,913.3,315.7z"/>
<path class="st1" d="M389.3,755.2c29.2-7.6,57.3-14.1,84.3-19.4l-10.4-34.7c3.6-2,19.2,18.1,19.2,18.1l-13.2-100.3
	c18,4,26.4,106.3,26.4,106.3l20.5-34.1L506,729.7c82.6-14.4,153.8-18.9,213.7-17.8l-8.9-29.7c3.6-2,19.2,18.1,19.2,18.1L717,600
	c18,4,26.4,106.3,26.4,106.3l20.5-34.1l-10.7,40.9c50.2,2.8,91.1,9.4,122.6,16.5c-8.8-46.1-39.8-90.4-39.8-90.4
	c23.8,12.4,36.2,32.5,42.6,51.2c1-56.7-1.5-161.8-25.6-278.7c0,0,48,180.5,40.7,300.8l-0.9,21.4c41.8,10.9,62.8,21.8,62.8,21.8
	L389.3,755.2z"/>
<path class="st1" d="M570.5,727.3c-0.2-0.3-5-8.3-6.7-25c-1.5-15.3-0.5-41,12.8-76.9c25.3-68-5.8-122.8-6.1-123.4l1.5-0.9
	c0.1,0.1,8.1,14.1,12.8,36.4c6.3,29.5,4,60.2-6.6,88.5c-25.2,67.9-6.5,100-6.3,100.3L570.5,727.3z"/>
<circle class="st2" cx="560.7" cy="486.6" r="11.5"/>
<circle class="st1" cx="597" cy="529.2" r="11.5"/>
<circle class="st2" cx="572.2" cy="557.6" r="11.5"/>
<circle class="st2" cx="602.3" cy="581.5" r="11.5"/>
<circle class="st1" cx="563.3" cy="618.7" r="11.5"/>
<path class="st1" d="M577.5,727.8c0,0-11.5-28.4,23-49.6L577.5,727.8z"/>
<path class="st1" d="M563.3,727.3c0,0-5.2-30.2-45.8-29.9L563.3,727.3z"/>
<path class="st3" d="M739.8,249.4L739.8,249.4c-22,0-39.9,19.8-39.9,44.3v31.1h9.5l5.5-11.5l-1.4,11.5H775l5-10.5l-1.3,10.5h6.9
	v-24.4C785.7,272.2,765.2,249.4,739.8,249.4z"/>
<path class="st4" d="M702.4,392.9l-6.6,25.4l61.8-2.2l-1.1-21C756.4,395.1,710.1,383,702.4,392.9z"/>
<polygon class="st4" points="642.8,494.5 662.6,538.6 681.4,515.4 665.9,484.5 "/>
<polygon class="st4" points="692.4,656.7 694.6,707.5 718.9,707.5 715.6,656.7 "/>
<path class="st3" d="M663.7,448.1l11,36.4l16.6,176.6c0,0,15.5,4.4,26.5-1.1l2.2-24.3l4.4-139.1c0,0,21-11,18.8-26.5
	s-7.7-36.4-7.7-36.4L663.7,448.1z"/>
<path class="st3" d="M697.9,695.4h-6.6c0,0-18.8,19.9-25.4,22.1s-40.8,21-13.2,24.3s45.3-11,45.3-11s8.8,5.5,21,1.1
	s5.5-17.7,5.5-17.7s-6.2-20.2-6.4-20C717.8,694.3,711.2,704.2,697.9,695.4z"/>
<circle class="st4" cx="732.2" cy="292.5" r="25.4"/>
<path class="st4" d="M769.7,325.6l-11.7,9.7l-1.6,1.3l-1.1,13.2h-43c0,0,5.9-5.1,11.3-10.4c0.1-0.1,0.2-0.3,0.4-0.4
	c0.7-0.7,1.4-1.4,2-2c0.3-0.3,0.6-0.6,0.9-0.9c0.5-0.5,0.9-0.9,1.3-1.4l0,0c1.1-1.2,2.2-2.4,3.2-3.7l0,0c0.3-0.4,0.5-0.7,0.7-1.1
	c3.3-5.5-4.4-16.6-4.4-16.6l24.3-12.1c0.8,12,11,20,15.5,23C768.9,325.1,769.7,325.6,769.7,325.6z"/>
<path class="st4" d="M829.3,511c-16.6,4.4-17.7-28.7-17.7-28.7L789,437.1c-4.8-9.5-8.1-19.8-9.7-30.3l-5.2-32.7l-1.6,1.9l0,0
	l-2.8,1.4l-17.2-27.6l-4.8-7.7v-8.8l16.6-7.7h6.6c0,0,0.1,0,0.4,0c3-0.3,22.9-1.6,23.9,17.7c0.4,7.6,0.4,13.9,0.2,18.8
	c-0.6,13.7,0.7,27.3,3.8,40.6c1.2,4.8,2.4,9,3.7,11.2c4.4,7.7,19.9,68.4,19.9,68.4S845.9,506.6,829.3,511z"/>
<path class="st4" d="M727.7,337.7l-4.2,7.6l-2.5,4.5L709,372c0,0-3.4,2.8-9,6.4c-9.2,6-24.4,14.3-39.6,15.7
	c-24.3,2.2-1.1-76.2-1.1-76.2s7.7-30.9,18.8-27.6c11,3.3,2.2,14.3-5.5,35.3s-1.1,44.2-1.1,44.2s23.2-14.3,35.3-25.4
	c6.3-5.8,11.8-7.3,15.5-7.5l0,0c1.2-0.1,2.5,0,3.7,0.3C726.6,337.3,727.2,337.5,727.7,337.7z"/>
<path class="st5" d="M731.4,331.1c0,0.1-0.6,1.1-4.5,5.1C728.5,334.6,730,332.9,731.4,331.1z"/>
<path class="st5" d="M773.6,374.7l-1,1.3l-16.2,28c0,0-21-7.7-36.4-9.9c-8.7-1.5-17.4,2.4-22.1,9.9l4.4-17.6l-2.4-7.9
	c-0.3-0.9-0.6-2-0.9-3.1c-3.3-11,8.8-23.2,8.8-23.2l14.4-15.2l0,0c1.2-0.1,2.5,0,3.7,0.3c-0.6,0.6-1.3,1.3-2,2
	c-0.1,0.1-0.3,0.3-0.4,0.4c-4.2,4.3-2,5.5-0.1,5.8c0.7,0.1,1.3,0.1,2,0.1c4.6,0.7,14.7-3.4,22.1-6.8c5-2.3,8.8-4.3,8.8-4.3l9.6-8.8
	l1.4-1.3c1.3,0.9,2.2,1.3,2.2,1.3h1.1c0,0,0.1,0,0.4,0l-5,3.7c-5.1,3.8-7.9,9.9-7.5,16.2l0,0L773.6,374.7z"/>
<path class="st3" d="M713.4,406.2l-16.1,6.3c0,0-87.6-33.9-100.9-6.3s46.4,93.8,46.4,93.8l26.5-12.1l-11-33.1c0,0,64,54.1,90.5,24.3
	s8.8-71.9,8.8-71.9S741,394,713.4,406.2z"/>
<path class="st3" d="M667,526.5l-9.9,7.7c0,0,8.8,35.3,5.5,40.8s-9.9,21,2.2,19.9s25.4-19.9,26.5-26.5s8.8-26.5,8.8-26.5
	s13.2-30.9,3.3-32s-25.8-1.8-25.8-1.8L667,526.5z"/>
<path class="st3" d="M751.1,261.6c-3.9-5.2-10-8.3-16.5-8.4h-0.8c-15.1,0-27.3,13.7-27.3,30.5l0,0h5.1l0.8-6.2l1.2,6.2h30l2.5-5.3
	l-0.6,5.3h5.9c2.8,13.7-1.2,27.4-11.9,41h10.1l5-10.5l-1.3,10.5h19.2l3.8-24.2C776.3,282.4,765.7,267,751.1,261.6z"/>
<path class="st1" d="M570.2,47.2V0h-16.7v47.2H308.2V0h-16.7v47.2H189.6v257.4H672V47.2H570.2z M299.8,107.4
	c-14.3,0-25.9-11.6-25.9-25.9c0-11.1,7.1-21,17.6-24.5v37.5h16.7V56.9c13.6,4.6,20.8,19.3,16.2,32.9
	C320.8,100.3,310.9,107.4,299.8,107.4L299.8,107.4z M561.8,107.4c-14.3,0-25.9-11.6-25.9-25.9c0-11.1,7.1-21,17.6-24.5v37.5h16.7
	V56.9c13.6,4.6,20.8,19.3,16.2,32.9C582.8,100.3,572.9,107.4,561.8,107.4L561.8,107.4z"/>
<rect x="212.8" y="133.8" class="st5" width="83.3" height="63"/>
<rect x="330.4" y="133.8" class="st5" width="83.3" height="63"/>
<rect x="448" y="133.8" class="st5" width="83.3" height="63"/>
<rect x="565.5" y="133.8" class="st5" width="83.3" height="63"/>
<rect x="212.8" y="215.3" class="st5" width="83.3" height="63"/>
<rect x="330.4" y="215.3" class="st5" width="83.3" height="63"/>
<rect x="448" y="215.3" class="st5" width="83.3" height="63"/>
<rect x="565.5" y="215.3" class="st5" width="83.3" height="63"/>
<polygon class="st2" points="489.2,179.4 463.2,143.5 470.3,138.3 490.2,165.9 566.5,87.5 572.8,93.6 "/>
<polygon class="st2" points="369.8,266.5 343.8,230.5 350.9,225.4 370.8,252.9 447.1,174.5 453.4,180.6 "/>
<polygon class="st0" points="251.2,639.1 232.1,631.6 213,624.1 229.1,611.3 245.1,598.5 248.1,618.8 "/>
<polygon class="st0" points="348.1,558.9 330.1,568.7 312.1,578.5 312.6,558 313.1,537.5 330.6,548.2 "/>
</svg>
