<?xml version="1.0" encoding="utf-8"?>
<!-- Generator: Adobe Illustrator 23.0.2, SVG Export Plug-In . SVG Version: 6.00 Build 0)  -->
<svg version="1.1" id="afe51864-995d-4d65-923d-32d0c94258ab"
	 xmlns="http://www.w3.org/2000/svg" xmlns:xlink="http://www.w3.org/1999/xlink" x="0px" y="0px" viewBox="0 0 1037 453.2"
	 style="enable-background:new 0 0 1037 453.2;" xml:space="preserve">
<style type="text/css">
	.st0{fill:#38D39F;}
	.st1{fill:#FFA37C;}
	.st2{fill:#EAC8A9;}
	.st3{fill:#575A89;}
	.st4{fill:#2F2E41;}
	.st5{opacity:0.1;enable-background:new    ;}
</style>
<title>outdoors</title>
<rect x="189" y="376.1" class="st0" width="303" height="76"/>
<rect x="523" y="376.6" class="st0" width="303" height="75.5"/>
<rect x="419.8" y="85.6" transform="matrix(0.997 -7.788474e-02 7.788474e-02 0.997 -9.3386 33.1738)" class="st0" width="1.6" height="101.4"/>
<path class="st0" d="M457,148.1c0,30.5-24.5,58.4-24.5,58.4c-6.2-17.8-9.4-36.4-9.5-55.3c0-30.5,4.2-55.3,9.5-55.3
	S457,117.6,457,148.1z"/>
<path class="st0" d="M387.6,162c11.7,28.2,45,44.6,45,44.6c-1.1-18.8-5.3-37.3-12.5-54.7c-11.7-28.2-25.1-49.4-30-47.4
	S375.9,133.8,387.6,162z"/>
<circle class="st0" cx="416.7" cy="85.8" r="10.3"/>
<circle class="st1" cx="420.6" cy="79.4" r="4.7"/>
<rect x="649.1" y="267.2" transform="matrix(0.9625 -0.2712 0.2712 0.9625 -61.8627 188.1687)" class="st0" width="1.6" height="101.4"/>
<path class="st0" d="M687.8,322.4c6,29.9-12.6,62.1-12.6,62.1c-9.5-16.2-16.3-33.9-20.1-52.3c-6-29.9-6.6-55-1.5-56
	S681.9,292.5,687.8,322.4z"/>
<path class="st0" d="M622.5,349.5c17,25.4,52.9,34.9,52.9,34.9c-4.8-18.2-12.5-35.5-22.9-51.2c-17-25.4-34.3-43.5-38.6-40.6
	S605.5,324.2,622.5,349.5z"/>
<circle class="st0" cx="636.2" cy="269.1" r="10.3"/>
<circle class="st1" cx="638.8" cy="262.1" r="4.7"/>
<rect x="652.7" y="316.5" transform="matrix(0.4367 -0.8996 0.8996 0.4367 110.7883 811.4957)" class="st0" width="101.4" height="1.6"/>
<path class="st0" d="M728.8,345.9c-15.4,26.3-50.6,38-50.6,38c3.7-18.5,10.3-36.2,19.8-52.5c15.4-26.3,31.6-45.5,36.1-42.9
	S744.2,319.5,728.8,345.9z"/>
<path class="st0" d="M661.9,322.8c-4.1,30.2,16.3,61.2,16.3,61.2c8.5-16.8,14.2-34.8,16.9-53.5c4.1-30.2,3.3-55.3-1.9-56
	S666,292.5,661.9,322.8z"/>
<circle class="st0" cx="725.5" cy="271.7" r="10.3"/>
<circle class="st1" cx="732.1" cy="268.2" r="4.7"/>
<path class="st2" d="M440.5,213c0,0-8.1-23-14-15.8s9,19.4,9,19.4L440.5,213z"/>
<path class="st3" d="M478.9,190.4l-4.9,1.8c0,0-2.3,10.4-1.4,12.2s1.4,0.5,0,4.1s-5.4,13.1-5.9,14.5s-26.2-8.6-26.2-13.5
	c0,0-5.4,6.3-8.1,7.7c0,0,29.8,21.7,33.9,24.4s6.3,1.4,9.9-1.8s19-29.4,19-29.4L478.9,190.4z"/>
<path class="st4" d="M465.8,350.7c0,0,0.5,5,1.4,5.4s7.7,11.7,0,14s-12.2,1.4-14,2.3s-33.4,2.7-33.9-2.3s15.4-5.9,15.4-5.9
	s14.5-9.5,16.7-14.5S465.8,350.7,465.8,350.7z"/>
<path class="st4" d="M557.5,359.7c0,0,10.8,18.5,8.1,20.8s-29.1,10.5-33,10.8c-5,0.5-8.6-3.6-4.5-5.9s12.6-11.7,12.6-14.9v-8.1
	L557.5,359.7z"/>
<path class="st4" d="M567.9,238.7c0,0,9.5,11.7-5.4,30.7L537.6,301c0,0,15.4,24.4,15.8,37c0.5,12.6,3.6,9.9,4.5,15.4
	c0.9,5.4,5,2.7,1.8,6.8c-3.2,4.1-14.9,7.7-18.5,4.5c-2.5-2.3-3.8-5.6-3.6-9c0-1.8-6.3-12.2-6.8-15.4s-17.2-28.9-17.2-28.9
	s-5.4-15.4,0.9-23.9c6.3-8.6,10.5-20.8,10.5-20.8s-18.6,22.6-31.7,28c0,0-5,0.9-4.1,3.2s0,3.6-1.4,5.9s-10.8,28.5-14,35.2
	s-1.8,10.8-5.4,13.1s-19.9,0.5-19.9-1.8s2.3-8.1,3.6-11.3s12.2-39.7,11.3-46.1s0.5-14.9,7.2-18.5s41.1-33,42.9-33
	S567.9,238.7,567.9,238.7z"/>
<circle class="st2" cx="477.1" cy="148.8" r="19"/>
<path class="st2" d="M492.5,150.7c0,0,5.9,10.4,13.1,11.7c7.2,1.4-19,22.1-19,22.1s-6.3-19.9-11.7-20.8S492.5,150.7,492.5,150.7z"/>
<path class="st3" d="M473.9,193.1c0,5.9,17.6,22.6,17.6,22.6l16.7,14c0,0,0.5,5,2.3,5.4c1.8,0.5,4.1,0.5,2.3,3.2s-6.3,8.6-2.3,9.5
	c1.2,0.2,2.5,0.3,3.7,0.4c1.1,0.1,2.4,0.1,3.8,0.2c3.3,0.1,7.5,0.2,12.1,0.2c1.3,0,2.6,0,3.9,0c17.1-0.3,36.9-2.3,35.2-8.8
	c-2.7-10.8-0.9-14.5-6.8-20.3S547,193.3,547,193.3s-19-32.1-34.8-32.1l-3.3-0.9c-3.1-0.8-6.4,0.4-8.2,3.2
	c-3.2,4.8-8.2,12.1-11.1,14.4c-4.5,3.6-5.2,1-5.2,1S473.9,187.2,473.9,193.1z"/>
<path class="st2" d="M514.1,261.7c0,0-13.1,20.3-5,23.9c8.1,3.6,12.6-21.2,12.6-21.2L514.1,261.7z"/>
<path class="st4" d="M489.5,146.7c-0.7-0.1-1-1-1.1-1.7c-0.7-3.9-3.5-7.5-7.4-8.2c-1.5-0.2-3-0.1-4.4,0.4c-2.1,0.6-4,1.5-5.7,2.8
	c-0.8,0.8-1.8,1.4-2.8,1.8c-0.7,0.2-3.7,1.6-4.4,1.8c-1.6,0.5-2.8,2.1-4.4,1.8c-1.5-0.3-2.1-2.2-2.4-3.7c-0.6-3.5,1.4-8.7,3.4-11.7
	c1.5-2.2,4.1-3.5,6.6-4.4c3-0.9,6.1-1.5,9.2-1.8c4.2-0.5,8.6-0.8,12.6,0.5s7.7,4.5,8.5,8.7c0.2,0.9,0.2,1.8,0.4,2.6
	c0.5,2.1,1.9,3.9,2.7,5.9c1.2,3,1.1,6.3-0.3,9.2c-1.1,2.3-3.1,4.4-2.7,6.9l-3.5-2.7c-1-0.6-1.5-1.8-1.2-3l0.5-4.4
	c0.2-0.8,0.1-1.6-0.2-2.4C491.4,142.4,490.7,146.9,489.5,146.7z"/>
<path class="st5" d="M522.3,230.6l-4.3,17.7c4.3,0.2,10,0.2,16,0.1c1.5-4.6,3-9.3,4.1-13.7c4.1-16.3-2.7-41.1-6.3-52.8
	S519.2,167,519.2,167c-3.7,1.3-7.2,3.1-10.4,5.4C502.8,176.4,522.3,230.6,522.3,230.6z"/>
<path class="st5" d="M518.7,229.7l-4.4,18.4c1.1,0.1,2.4,0.1,3.8,0.2c3.3,0.1,7.5,0.2,12.1,0.2c1.6-4.8,3.2-9.9,4.4-14.7
	c4.1-16.3-2.7-41.1-6.3-52.8s-11.5,1.1-11.5,1.1s3.2-7.7-2.7-3.6S518.7,229.7,518.7,229.7z"/>
<path class="st3" d="M517.3,166c0,0,9,3.2,12.6,14.9s10.4,36.6,6.3,52.8s-12.6,36.6-12.6,36.6s-8.6-6.3-11.7-5l8.6-35.7
	c0,0-19.4-54.2-13.5-58.3C510.1,169.1,513.6,167.3,517.3,166z"/>
<path class="st0" d="M479,382.8c-13-2.2-25.5-4.1-37.5-5.7l4.7-9.2c-1.6-0.6-8.6,4.7-8.6,4.7l6.2-26.7c-8.1,1-12.1,28.2-12.1,28.2
	l-9-9.2l4.4,10.4c-31.6-3.8-63.4-5.8-95.2-6l4.1-7.9c-1.6-0.6-8.6,4.7-8.6,4.7l6.2-26.7c-8.1,1-12.1,28.2-12.1,28.2l-9-9.2l4.6,11
	c-18.3,0.3-36.6,1.5-54.7,3.7c4.1-12.3,18.1-23.9,18.1-23.9c-10.7,3.2-16.3,8.5-19.2,13.4c-0.3-25.3,3.9-50.5,12.4-74.3
	c0,0-22,48-19.2,80.1l0.3,5.7c-18.7,2.7-26,9-26,9L479,382.8z"/>
</svg>
