<?xml version="1.0" encoding="utf-8"?>
<!-- Generator: Adobe Illustrator 23.0.2, SVG Export Plug-In . SVG Version: 6.00 Build 0)  -->
<svg version="1.1" id="a16eab0f-bf37-4f1b-963b-005ab00945e2"
	 xmlns="http://www.w3.org/2000/svg" xmlns:xlink="http://www.w3.org/1999/xlink" x="0px" y="0px" viewBox="0 0 993 742"
	 style="enable-background:new 0 0 993 742;" xml:space="preserve">
<style type="text/css">
	.st0{fill:#F0F0F0;}
	.st1{fill:#38D39F;}
	.st2{fill:#FFA37C;}
	.st3{fill:none;stroke:#38D39F;stroke-miterlimit:10;}
	.st4{fill:#EAC8A9;}
	.st5{fill:#2F2E41;}
</style>
<title>photo_session</title>
<path class="st0" d="M993,696.5c0,4.1-3.8,8.1-10.8,11.9C946.2,727.7,824.1,742,679,742c-5.7,0-11.4,0-17-0.1
	c-165.5-1.3-297-21.1-297-45.4c0-25.1,140.6-45.5,314-45.5c47.5,0,92.5,1.5,132.9,4.3c10.1,0.7,20,1.5,29.5,2.3
	c4,0.3,7.9,0.7,11.7,1.1c18.1,1.8,34.9,3.8,50.1,6c7.4,1.1,14.4,2.2,21,3.4c17.2,3.1,31.6,6.5,42.8,10.2
	C983.7,683.9,993,690,993,696.5z"/>
<path class="st0" d="M628,466c0,16.6-140.6,30-314,30c-28.7,0-56.4-0.4-82.8-1.1c-101.7-2.6-182.9-10.1-215.6-19.6
	C5.5,472.4,0,469.3,0,466c0-3.7,7.2-7.3,20.3-10.6c7.6-1.9,17.3-3.8,28.8-5.5c0.1,0,0.2,0,0.3,0c26.2-3.9,61.6-7.2,103.4-9.6
	C199.9,437.5,255,436,314,436C487.4,436,628,449.4,628,466z"/>
<path class="st1" d="M613.7,318.7l-22.9-6.4c0,0-9-1.8-3.5-19.3s16.4-12.6,16.4-12.6l20.3,5.9l8,2.5l-11.3,15.9l-0.9,10.6
	L613.7,318.7z"/>
<polygon class="st1" points="658,272.4 665.2,301.1 628.4,336.8 625.2,337.6 616.8,335.2 609.6,306.5 616.8,298.8 609.4,296.9 
	625.3,281.5 633.6,283.2 640.2,276.6 635.7,274.8 635.3,273.1 640.8,268.8 "/>
<polygon class="st2" points="623.5,312.9 628.3,331.9 650.2,311.1 644.7,291.9 "/>
<polygon class="st3" points="658,272.4 659,276.4 622.4,312 619.2,312.8 611,310.6 610.6,310.6 609.6,306.5 616.8,298.8 
	609.4,296.9 625.3,281.5 633.6,283.2 640.2,276.6 635.7,274.8 635.3,273.1 640.8,268.8 "/>
<ellipse transform="matrix(0.9701 -0.2429 0.2429 0.9701 -46.8661 163.8557)" class="st1" cx="641.1" cy="272" rx="3" ry="2.1"/>
<ellipse transform="matrix(0.9701 -0.2429 0.2429 0.9701 -55.0323 159.1213)" class="st1" cx="617.8" cy="302.8" rx="3" ry="2.1"/>
<path class="st4" d="M598.5,354.5l5-17c0,0-13-31,2-34s16,29,16,29l-6,19L598.5,354.5z"/>
<circle class="st4" cx="691.3" cy="281.7" r="39.7"/>
<path class="st4" d="M678.5,309.8c0,0-2.3,29.2-8.2,31.5s63.1,18.7,63.1,18.7l-17.5-19.9c0,0-3.5-30.4,4.7-37.4L678.5,309.8z"/>
<path class="st0" d="M622.5,345.5l-16-2c0,0-19,10-19,23s-11,34-11,34s-8,28,10,30s34-30,34-30L622.5,345.5z"/>
<path class="st5" d="M613.5,504.5c0,0-35-33-45-31s-30,5-30,20s33,50,33,50s25,55,49,57c15.8,1.4,31.5,3.8,47,7c0,0-11,40-5,51
	s29,24,31,23s30-27,42-64s20-65,9-67S613.5,504.5,613.5,504.5z"/>
<path class="st5" d="M541.5,490.5c0,0-7-1-6,16s4,78,9,90s6,26,4,31s-6,13,1,14s36-3,39-4s6-18,4-18s-7-1-5-8s3-7,0-9s-11-5-9-7
	s4-49,4-49L541.5,490.5z"/>
<path class="st5" d="M551.5,638.5c0,0-17-5-19,6c0,0-3,17,10,23c8.4,4,16.4,8.6,24,14c0,0,21,8,22-2s-4-46-4-46L551.5,638.5z"/>
<path class="st5" d="M664.5,650.5l32-26c0,0-6,32,2,38l3.7,10.7l-10.2,8.4C691.9,681.6,660.5,676.5,664.5,650.5z"/>
<path class="st5" d="M709.5,606.5c0,0-21,6-18,27s6.8,43.8,6.8,43.8s1.2,56.2,16.2,60.2s19-4,19-4s17.1-43.9,12-57
	c-6.1-15.9-14.9-33.6-12-39C736.4,632.2,731.5,603.5,709.5,606.5z"/>
<path class="st0" d="M721.5,330.5c0,0-8,1-21,3s-22-8-29-6s-65,16-65,16l9,69c0,0-11,80-9,94s-24,12-9,29s41,32,94,27s60-4,60-12
	s-12-76-8-82s12-13,8-20s-8-11-2-17s9-12,9-15s14-52,14-52s-6-24-13-25s-13-6-18-6s-8,1-11,0L721.5,330.5z"/>
<path class="st5" d="M634.2,274.6c4.6-0.6,9.4-3.4,11.9-5.1c2.9,2.8,20.8,19,51.5,23.7c0,0,0.1-0.6,0.2-1.6l10.5,1.8l19.5-1.9
	c-0.1,0.3-0.2,0.5-0.2,0.5s2.8-0.8,3.7-7c0.2-1.2,0.4-2.4,0.7-3.6c1.6-7.1,5.4-32.9-16.2-50.1c-15.7-12.5-33.8-8.6-45.2-3.8
	c-9.4,3.9-16.8,11.4-20.5,20.9c-0.9,2.3-1.6,4.8-1.9,7.3l-0.4,1.3c-3.5,0.5-10.4-2.4-14.2-1.1c-5.1,1.9-7.6,9.6-8.2,11.9
	S627.5,275.5,634.2,274.6z M700.5,281.8c2.8-7.1,8-14.9,17.6-14.5c9.9,0.4,11.7,8.3,11.3,15l-24.7,0.9L700.5,281.8z"/>
<ellipse transform="matrix(0.1682 -0.9857 0.9857 0.1682 360.325 874.8322)" class="st5" cx="698.6" cy="223.9" rx="1.7" ry="4.4"/>
<circle class="st2" cx="371" cy="26" r="26"/>
<path class="st5" d="M328,191.2c-0.1-0.4-8.8-35.5-10.3-72.6c-0.9-21.8,0.9-40,5.2-54.1c5.5-17.8,15.2-29.1,28.7-33.5l0.6,1.9
	c-29.4,9.6-33.9,51.9-32.6,85.6c1.5,36.8,10.1,71.8,10.2,72.2L328,191.2z"/>
<path class="st1" d="M438.4,387.9c-13.8,18.1,2,53.4,2,53.4s38.2,5.9,52.1-12.2s-2-53.4-2-53.4S452.2,369.8,438.4,387.9z"/>
<path class="st1" d="M175.6,417.6c11.4,13.3,40.6,7.1,40.6,7.1s10.6-27.9-0.8-41.2s-40.6-7.1-40.6-7.1S164.1,404.2,175.6,417.6z"/>
<path class="st5" d="M488.5,465.9c-111.8-60.8-199.9-57.6-254.2-44.2c-58.7,14.5-91.4,43.7-91.7,44l-1.3-1.5
	c0.3-0.3,33.4-29.8,92.6-44.5c34.7-8.6,71.6-10.5,109.5-5.6c47.3,6.1,96.5,22.9,146.1,49.9L488.5,465.9z"/>
<rect x="314.5" y="287" class="st5" width="2" height="125.6"/>
<circle class="st1" cx="316" cy="323" r="72"/>
<circle class="st1" cx="316" cy="202" r="54"/>
<circle class="st1" cx="316" cy="112" r="42"/>
</svg>
