<?xml version="1.0" encoding="utf-8"?>
<!-- Generator: Adobe Illustrator 23.0.2, SVG Export Plug-In . SVG Version: 6.00 Build 0)  -->
<svg version="1.1" id="e1c0b962-9030-4e23-944a-23cc505a5b47"
	 xmlns="http://www.w3.org/2000/svg" xmlns:xlink="http://www.w3.org/1999/xlink" x="0px" y="0px" viewBox="0 0 1034.5 814"
	 style="enable-background:new 0 0 1034.5 814;" xml:space="preserve">
<style type="text/css">
	.st0{fill:#F2F2F2;}
	.st1{fill:#38D39F;}
	.st2{fill:#2F2E41;}
	.st3{fill:#EAC8A9;}
	.st4{fill:#FF6584;}
	.st5{fill:#FFA37C;}
	.st6{fill:#FFFFFF;}
</style>
<title>plans</title>
<circle class="st0" cx="591" cy="565" r="240"/>
<path class="st1" d="M608,808c-2.8,0-5.6,0-8.3-0.1l0.1-2c4,0.1,8,0.2,12,0.1v2C610.5,808,609.3,808,608,808z M623.8,807.5l-0.1-2
	c4-0.2,8-0.6,11.9-1l0.2,2C631.8,807,627.8,807.3,623.8,807.5L623.8,807.5z M587.7,807.2c-4-0.3-8-0.7-12-1.2l0.2-2
	c3.9,0.5,7.9,0.9,11.9,1.2L587.7,807.2z M647.7,805l-0.3-2c3.9-0.6,7.9-1.3,11.8-2.1l0.4,2C655.7,803.7,651.7,804.4,647.7,805
	L647.7,805z M563.8,804.3c-3.9-0.7-7.9-1.4-11.8-2.3l0.4-2c3.9,0.8,7.8,1.6,11.7,2.3L563.8,804.3z M671.3,800.3l-0.5-1.9
	c3.9-1,7.7-2,11.5-3.1l0.6,1.9C679.1,798.3,675.2,799.4,671.3,800.3z M540.3,799.2c-3.9-1-7.8-2.2-11.6-3.4l0.6-1.9
	c3.8,1.2,7.6,2.3,11.5,3.3L540.3,799.2z M694.4,793.5l-0.7-1.9c3.7-1.3,7.5-2.7,11.2-4.2l0.7,1.9C702,790.8,698.2,792.2,694.4,793.5
	L694.4,793.5z M517.3,791.9c-3.8-1.4-7.5-2.9-11.2-4.4l0.8-1.8c3.7,1.5,7.4,3,11.1,4.4L517.3,791.9z M716.7,784.5l-0.8-1.8
	c3.6-1.6,7.2-3.4,10.7-5.2l0.9,1.8C724,781.1,720.4,782.9,716.7,784.5L716.7,784.5z M495,782.6c-3.6-1.7-7.2-3.5-10.8-5.4l0.9-1.8
	c3.5,1.9,7.1,3.7,10.7,5.4L495,782.6z M738.1,773.6l-1-1.7c3.4-2,6.9-4,10.2-6.1l1.1,1.7C745.1,769.5,741.6,771.6,738.1,773.6
	L738.1,773.6z M473.8,771.2c-3.4-2-6.9-4.2-10.2-6.4l1.1-1.7c3.3,2.2,6.7,4.3,10.1,6.4L473.8,771.2z M758.5,760.8l-1.1-1.6
	c3.2-2.3,6.5-4.6,9.6-7.1l1.2,1.6C765,756.1,761.7,758.5,758.5,760.8L758.5,760.8z M453.6,757.9c-3.2-2.3-6.5-4.8-9.6-7.3l1.2-1.6
	c3.1,2.5,6.3,4.9,9.5,7.2L453.6,757.9z M777.5,746.1l-1.3-1.5c3-2.6,6-5.2,9-7.9l1.4,1.5C783.6,740.8,780.6,743.5,777.5,746.1z
	 M434.8,742.9c-3-2.6-6-5.4-8.9-8.1l1.4-1.4c2.9,2.7,5.8,5.5,8.8,8.1L434.8,742.9z M795.2,729.7l-1.4-1.4c2.8-2.8,5.5-5.8,8.2-8.7
	l1.5,1.3C800.8,723.9,798,726.9,795.2,729.7L795.2,729.7z M417.4,726.2c-2.8-2.9-5.5-5.9-8.1-8.9l1.5-1.3c2.6,3,5.3,6,8,8.8
	L417.4,726.2z M811.3,711.9l-1.5-1.3c2.5-3.1,5-6.2,7.4-9.4l1.6,1.2C816.4,705.6,813.9,708.8,811.3,711.9L811.3,711.9z M401.7,708.1
	c-2.5-3.1-4.9-6.4-7.2-9.6l1.6-1.2c2.3,3.2,4.7,6.4,7.2,9.5L401.7,708.1z M825.8,692.6l-1.7-1.1c2.2-3.3,4.4-6.7,6.5-10l1.7,1
	C830.2,685.8,828,689.3,825.8,692.6L825.8,692.6z M387.6,688.5c-2.2-3.3-4.3-6.8-6.3-10.2l1.7-1c2,3.4,4.1,6.8,6.3,10.1L387.6,688.5
	z M838.4,672l-1.8-1c1.9-3.5,3.8-7,5.5-10.6l1.8,0.9C842.2,664.9,840.3,668.5,838.4,672L838.4,672z M375.4,667.8
	c-1.9-3.5-3.7-7.1-5.4-10.8l1.8-0.9c1.7,3.6,3.5,7.2,5.3,10.7L375.4,667.8z M849.1,650.4l-1.8-0.8c1.6-3.6,3.1-7.4,4.5-11.1l1.9,0.7
	C852.2,643,850.7,646.7,849.1,650.4z M365.2,646.1c-1.5-3.7-3-7.4-4.4-11.2l1.9-0.7c1.4,3.7,2.8,7.5,4.3,11.1L365.2,646.1z
	 M857.7,627.9l-1.9-0.6c1.2-3.8,2.4-7.6,3.5-11.4l1.9,0.5C860.2,620.2,859,624.1,857.7,627.9L857.7,627.9z M356.9,623.5
	c-1.2-3.8-2.3-7.7-3.3-11.6l1.9-0.5c1,3.8,2.1,7.7,3.3,11.5L356.9,623.5z M864.2,604.7l-1.9-0.5c0.9-3.9,1.7-7.8,2.4-11.7l2,0.4
	C866,596.8,865.1,600.8,864.2,604.7z M350.8,600.2c-0.8-3.9-1.6-7.9-2.2-11.8l2-0.3c0.6,3.9,1.4,7.9,2.2,11.7L350.8,600.2z
	 M868.6,581l-2-0.3c0.5-3.9,1-7.9,1.4-11.9l2,0.2C869.6,573,869.1,577.1,868.6,581L868.6,581z M346.9,576.4c-0.5-4-0.9-8-1.2-12
	l2-0.1c0.3,4,0.7,8,1.1,11.9L346.9,576.4z M870.8,557l-2-0.1c0.2-4,0.3-8,0.3-11.9h2C871,549,870.9,553,870.8,557z M345.1,552.4
	c-0.1-2.5-0.1-5-0.1-7.4c0-1.5,0-3.1,0-4.6h2c0,1.5,0,3,0,4.6c0,2.5,0,4.9,0.1,7.4H345.1z M869,542.2c0-4-0.2-8-0.4-11.9l2-0.1
	c0.2,4,0.4,8,0.4,12H869z M347.5,528.5l-2-0.1c0.2-4,0.6-8,1-12l2,0.2C348.1,520.5,347.8,524.5,347.5,528.5z M867.7,518.4
	c-0.4-3.9-0.9-7.9-1.5-11.9l2-0.3c0.6,4,1.1,8,1.5,11.9L867.7,518.4z M350.1,504.7l-2-0.3c0.6-4,1.3-7.9,2.1-11.9l2,0.4
	C351.4,496.9,350.7,500.8,350.1,504.7z M864.2,494.7c-0.8-3.9-1.6-7.8-2.6-11.7l1.9-0.5c0.9,3.9,1.8,7.8,2.6,11.8L864.2,494.7z
	 M354.9,481.3l-1.9-0.5c1-3.9,2-7.8,3.2-11.6l1.9,0.6C356.9,473.6,355.8,477.5,354.9,481.3z M858.5,471.5c-1.1-3.8-2.3-7.6-3.6-11.4
	l1.9-0.7c1.3,3.8,2.5,7.6,3.7,11.5L858.5,471.5z M361.7,458.4l-1.9-0.7c1.3-3.8,2.8-7.6,4.3-11.3l1.9,0.8
	C364.5,450.9,363.1,454.7,361.7,458.4z M850.8,448.9c-1.5-3.7-3-7.4-4.6-11l1.8-0.8c1.6,3.6,3.2,7.4,4.7,11.1L850.8,448.9z
	 M370.7,436.2l-1.8-0.8c1.7-3.6,3.4-7.3,5.3-10.8l1.8,0.9C374.1,429,372.4,432.6,370.7,436.2z M841,427.2c-1.8-3.5-3.7-7.1-5.6-10.5
	l1.7-1c2,3.5,3.9,7,5.7,10.6L841,427.2z M381.7,414.9l-1.7-1c2-3.5,4.1-6.9,6.3-10.3l1.7,1.1C385.8,408.1,383.7,411.5,381.7,414.9z
	 M829.2,406.4c-2.1-3.4-4.3-6.7-6.6-10l1.6-1.1c2.3,3.3,4.5,6.6,6.6,10L829.2,406.4z M394.6,394.8l-1.6-1.2c2.3-3.3,4.7-6.5,7.2-9.7
	l1.6,1.2C399.3,388.3,396.9,391.5,394.6,394.8z M815.6,386.8c-2.4-3.2-4.9-6.3-7.5-9.3l1.5-1.3c2.6,3.1,5.1,6.2,7.5,9.4L815.6,386.8
	z M409.2,375.9l-1.5-1.3c2.6-3,5.3-6.1,8-9l1.5,1.4C414.5,369.9,411.8,372.9,409.2,375.9z M800.3,368.5c-2.7-2.9-5.5-5.8-8.3-8.6
	l1.4-1.4c2.8,2.8,5.6,5.7,8.3,8.7L800.3,368.5z M425.5,358.4l-1.4-1.4c2.9-2.8,5.8-5.6,8.8-8.2l1.3,1.5
	C431.3,352.9,428.4,355.6,425.5,358.4z M783.3,351.6c-2.9-2.7-6-5.3-9-7.8l1.3-1.5c3.1,2.5,6.1,5.2,9.1,7.9L783.3,351.6z
	 M443.3,342.5l-1.3-1.6c3.1-2.5,6.3-5,9.5-7.4l1.2,1.6C449.6,337.5,446.4,340,443.3,342.5z M764.9,336.4c-3.2-2.4-6.4-4.7-9.7-7
	l1.1-1.7c3.3,2.3,6.6,4.6,9.8,7L764.9,336.4z M462.5,328.3l-1.1-1.7c3.3-2.2,6.7-4.4,10.1-6.5l1,1.7
	C469.2,323.9,465.8,326.1,462.5,328.3z M745.2,322.9c-3.4-2.1-6.9-4.1-10.3-6.1l1-1.7c3.5,1.9,7,4,10.4,6.1L745.2,322.9z
	 M482.9,315.9l-1-1.8c3.5-1.9,7.1-3.8,10.7-5.5l0.9,1.8C490,312.1,486.4,314,482.9,315.9L482.9,315.9z M724.3,311.3
	c-3.6-1.8-7.2-3.5-10.8-5.1l0.8-1.8c3.7,1.6,7.3,3.3,10.9,5.1L724.3,311.3z M504.3,305.4l-0.8-1.8c3.7-1.6,7.4-3.1,11.1-4.5l0.7,1.9
	C511.7,302.3,508,303.8,504.3,305.4L504.3,305.4z M702.4,301.6c-3.7-1.4-7.5-2.8-11.3-4.1l0.6-1.9c3.8,1.3,7.6,2.7,11.4,4.1
	L702.4,301.6z M526.6,296.9L526,295c3.8-1.2,7.7-2.4,11.5-3.5l0.5,1.9C534.3,294.5,530.4,295.7,526.6,296.9L526.6,296.9z M679.7,294
	c-3.8-1.1-7.7-2.1-11.6-3l0.5-1.9c3.9,0.9,7.8,1.9,11.7,3L679.7,294z M549.7,290.6l-0.4-1.9c3.9-0.9,7.9-1.7,11.8-2.4l0.4,2
	C557.5,288.9,553.5,289.7,549.7,290.6L549.7,290.6z M656.5,288.5c-3.9-0.7-7.9-1.4-11.8-1.9l0.3-2c4,0.6,8,1.2,11.9,1.9L656.5,288.5
	z M573.2,286.3l-0.3-2c4-0.5,8-1,12-1.3l0.2,2C581.1,285.3,577.1,285.8,573.2,286.3L573.2,286.3z M632.8,285.2
	c-3.9-0.4-7.9-0.7-11.9-0.8l0.1-2c4,0.2,8,0.5,12,0.9L632.8,285.2z M597,284.2l-0.1-2c3.7-0.2,7.4-0.2,11.1-0.2h0.9v2H608
	C604.4,284,600.6,284.1,597,284.2L597,284.2z"/>
<ellipse class="st1" cx="596.3" cy="805" rx="164" ry="9"/>
<path class="st2" d="M608.1,137.8c0,0-15.3,16.8-16,29s-26.9,42.4-1,52.4c0,0,4.6-3.1,9.2,0s35.2-3.5,35.2-3.5L608.1,137.8z"/>
<path class="st3" d="M621.4,205.5c0,0,16.7,23.4,1.7,28.4s10,105.4,10,105.4l63.6-98.7c0,0-33.5-36.8-33.5-53.5L621.4,205.5z"/>
<path class="st3" d="M772,324.3c0,0,21.7,21.7,15.1,26.8s-73.6,36.8-73.6,38.5s-10,10-10,10l-11.7-18.4l45.2-28.4L772,324.3z"/>
<path class="st3" d="M532.8,312.6c0,0-16.7,26.8-3.3,38.5s53.5,43.5,53.5,43.5s-8.7,27.2-0.2,28.6s21.9-37,20.3-40.3
	s-46.2-32.3-46.2-32.3L532.8,312.6z"/>
<polygon class="st3" points="517.4,721.3 505,767 529,768 539.1,731.4 "/>
<polygon class="st3" points="663.2,724 663.2,760.8 680,760.8 688.3,724 "/>
<circle class="st3" cx="633.1" cy="178.8" r="36.8"/>
<path class="st2" d="M644.8,309.2L623.1,234c0,0-40.1-5-58.5,18.4s-38.5,66.9-38.5,66.9s10,15.1,11.7,25.1s28.4,5,28.4,5
	s25.1,5,25.1,26.8s-78.6,354.6-78.6,354.6s95.3,21.7,102,5s40.1-217.4,40.1-217.4l3.3,224.1c0,0,80.3,11.7,83.6-8.4
	s-13.4-269.3-13.4-269.3s-3.3-56.9-30.1-90.3c0,0-1.7-10-1.7-11.7s41.8-8.4,41.8-8.4s45.2,10,43.5-25.1s-53.5-83.6-71.9-88.6
	S686.8,229,686.8,229L644.8,309.2z"/>
<path class="st2" d="M508,758c0,0,5.4-3-8,2c-13.4,5-43,19-43,19s-49.7,5.5-6.2,25.6c0,0,33.5,2.4,33.5-1s11.7-8.4,15.1-3.3
	s36.7,3.7,36.8-1c0.1-5.3-3.3-42.5-3.3-42.5S511.4,769.7,508,758z"/>
<path class="st2" d="M685,750.8c0,0-28.4-11.7-30.1-5s-5,31.8-5,35.1s-6.7,28.4,16.7,31.8s28.4-18.4,26.8-20.1S685,750.8,685,750.8z
	"/>
<path class="st2" d="M636.7,123.7c0,0,26.5-26.7,59.3,34.3c0,0,33.1,52.2-10.4,67.5c0,0-37.6-7.5-38.7-25.8c0,0,13.7-1.5,3.1-13
	s-20.6-16.8-20.6-16.8s-8.4-5.3-8.4-10.7c0,0,0,9.2,1.5,9.2c0,0-14.5-1.5-15.3-7.6s-3.8-16-3.8-16S608.1,119.5,636.7,123.7z"/>
<circle class="st0" cx="814" cy="159" r="26"/>
<path class="st1" d="M817,187c-18.2,0-33-14.8-33-33s14.8-33,33-33s33,14.8,33,33S835.3,187,817,187z M817,123
	c-17.1,0-31,13.9-31,31s13.9,31,31,31s31-13.9,31-31S834.1,123,817,123z"/>
<path class="st4" d="M832.2,209.8h-41.3c-2.8-16.3-2.8-33,0-49.2h41.3C827.5,176.6,827.5,193.7,832.2,209.8z"/>
<circle class="st0" cx="439.5" cy="211.5" r="26"/>
<path class="st1" d="M436.5,239.5c-18.2,0-33-14.8-33-33s14.8-33,33-33s33,14.8,33,33l0,0C469.5,224.7,454.8,239.5,436.5,239.5z
	 M436.5,175.5c-17.1,0-31,13.9-31,31s13.9,31,31,31s31-13.9,31-31S453.6,175.5,436.5,175.5z"/>
<path class="st5" d="M415.9,256.8h41.3c2.8-16.3,2.8-33,0-49.2h-41.3C420.6,223.6,420.6,240.7,415.9,256.8z"/>
<circle class="st6" cx="594" cy="38" r="26"/>
<path class="st1" d="M597,66c-18.2,0-33-14.8-33-33s14.8-33,33-33s33,14.8,33,33S615.3,66,597,66z M597,2c-17.1,0-31,13.9-31,31
	s13.9,31,31,31s31-13.9,31-31S614.1,2,597,2z"/>
<path class="st5" d="M573.9,81.8h41.3c2.8-16.3,2.8-33,0-49.2h-41.3C578.6,48.6,578.6,65.7,573.9,81.8z"/>
<path class="st5" d="M180,548.2c34.4,103.4,22.3,200.5,22.3,200.5s-67.8-70.6-102.1-174S77.9,374.3,77.9,374.3
	S145.6,444.8,180,548.2z"/>
<path class="st5" d="M224.6,548.2c-34.4,103.4-22.3,200.5-22.3,200.5s67.8-70.6,102.1-174s22.3-200.5,22.3-200.5
	S258.9,444.8,224.6,548.2z"/>
<path class="st1" d="M238.4,549.4c2.3,108.9-37.9,198.1-37.9,198.1s-43.9-87.4-46.2-196.4S192.2,353,192.2,353
	S236.1,440.4,238.4,549.4z"/>
<ellipse class="st1" cx="200.5" cy="748.7" rx="97.2" ry="5.3"/>
<circle class="st5" cx="196.4" cy="453.1" r="10.7"/>
<circle class="st5" cx="175.6" cy="538.4" r="5.9"/>
<ellipse class="st1" cx="103.3" cy="479.7" rx="5.9" ry="5.9"/>
<circle class="st1" cx="312.5" cy="422.3" r="5.9"/>
<circle class="st1" cx="134.1" cy="535.4" r="5.9"/>
<circle class="st1" cx="258.6" cy="501.1" r="5.9"/>
<circle class="st1" cx="137.7" cy="622.5" r="5.9"/>
<circle class="st1" cx="264.5" cy="588.8" r="5.9"/>
<circle class="st5" cx="207" cy="594.7" r="5.9"/>
</svg>
