<?xml version="1.0" encoding="utf-8"?>
<!-- Generator: Adobe Illustrator 23.0.2, SVG Export Plug-In . SVG Version: 6.00 Build 0)  -->
<svg version="1.1" id="Слой_1" xmlns="http://www.w3.org/2000/svg" xmlns:xlink="http://www.w3.org/1999/xlink" x="0px" y="0px"
	 viewBox="0 0 32 32" style="enable-background:new 0 0 32 32;" xml:space="preserve">
<style type="text/css">
	.st0{fill:#439A86;}
</style>
<path id="surface1" class="st0" d="M6,7C5.7,7,5.4,7.1,5.1,7.2L8,9H24l2.9-1.9C26.6,7.1,26.3,7,26,7L6,7z M4.1,7.7
	C3.4,8.3,3,9.1,3,10v13c0,1.7,1.3,3,3,3h20c1.7,0,3-1.3,3-3V10c0-0.9-0.4-1.8-1.1-2.3L16,15.3L4.1,7.7z M6,12.4l10,6.4l10-6.4V24H6
	V12.4z"/>
</svg>
