<?xml version="1.0" encoding="utf-8"?>
<!-- Generator: Adobe Illustrator 23.0.2, SVG Export Plug-In . SVG Version: 6.00 Build 0)  -->
<svg version="1.1" id="Слой_1" xmlns="http://www.w3.org/2000/svg" xmlns:xlink="http://www.w3.org/1999/xlink" x="0px" y="0px"
	 viewBox="0 0 512 512" style="enable-background:new 0 0 512 512;" xml:space="preserve">
<style type="text/css">
	.st0{fill:#55A774;}
</style>
<path class="st0" d="M204,222.3v67.6c0,15.4,12.2,28.2,27.6,28.2H280c15.5-0.2,27.9-12.7,28-28.2v-67.5c38-18.6,62.9-56.3,62.9-97.2
	c0-60.2-51.5-109.1-114.8-109.1s-114.7,49-114.7,109.1C141.4,165.9,166,203.6,204,222.3z M220,247h72v6h-72V247z M220,269h72v6h-72
	V269z M280,302h-48.5c-6.1,0-11.1-5-11.8-11h72C291.1,297,286.1,302,280,302z M256,31.9c54.5,0,98.8,41.8,98.8,93.1
	c0,36.3-22.7,69.5-58,84.8c-2.9,1.3-4.8,4.2-4.8,7.3V231h-27.6l-0.1-84.6c4.9,1.4,9.4,4.1,13,7.7c3.1,3.1,8.2,3.2,11.3,0.1
	s3.2-8.2,0.1-11.3c-18.1-18.1-47.4-18.3-65.7-0.4c-3.2,3.1-3.2,8.2-0.1,11.3s8.2,3.2,11.3,0.1l0,0c3.9-3.8,8.8-6.6,14.1-7.9
	l0.1,84.9H220v-13.8c-0.1-3.2-2-6.1-4.9-7.3c-35.1-15.3-57.8-48.6-57.8-84.8C157.3,73.7,201.5,31.9,256,31.9z"/>
<path class="st0" d="M471.1,126.1c-0.7-4.2-4.5-7.1-8.7-6.7c-19.2,1.8-33.5,18.4-32.5,37.6l1.4,58.9c-15.8,1.6-29.6,11.3-36.4,25.6
	l-21.5,45.2c-3.4,7-8.2,13.2-14.3,18l-4.5,3.6c-22.8,18.2-35.5,46.1-34.1,75.2l-8.8-4.2c-4-1.9-8.8-0.2-10.7,3.8l-23.6,49.6
	c-1.9,4-0.2,8.8,3.8,10.7c0,0,0,0,0,0L390,495.3c4,1.9,8.8,0.2,10.7-3.8c0,0,0,0,0,0l23.6-49.6c1.9-4,0.2-8.8-3.8-10.7l-4.6-2.2
	l-1.2-15.5c-0.5-6.1,1.4-12.1,5.3-16.7l56.4-68.2c0.1-0.1,0.2-0.3,0.3-0.4c11.6-16.2,17.7-35.7,17.5-55.7c0-0.4,0-0.8-0.1-1.1
	L471.1,126.1z M389.7,477.4l-94.4-44.9l16.7-35.1l94.4,44.9L389.7,477.4z M463.9,318.6l-56.2,68c-6.5,7.9-9.7,17.9-8.9,28.1l0.5,6.4
	l-61.9-29.5c-4.4-26.8,6-53.9,27.2-70.8l4.5-3.6c7.9-6.4,14.3-14.5,18.7-23.7l21.5-45.2c5.6-11.8,18.4-18.4,31.3-16.3l-31.5,66.1
	c-1.9,4-0.3,8.8,3.7,10.7c4,1.9,8.8,0.3,10.7-3.7c0,0,0-0.1,0-0.1l35.4-74.3c1.9-4,0.2-8.8-3.8-10.7c-2.5-1.2-5.2-2.2-7.9-2.9
	l-1.5-60.7c0-0.1,0-0.1,0-0.2c-0.4-7.9,3.8-15.3,10.8-18.9l21.5,135.8C478.3,289.5,473.3,305.4,463.9,318.6z"/>
<path class="st0" d="M210.9,383.2c-1.9-4-6.7-5.7-10.7-3.8c0,0,0,0,0,0l-8.8,4.2c1.3-29.1-11.4-57.1-34.1-75.2l-4.5-3.6
	c-6.1-4.9-10.9-11-14.3-18l-21.5-45.2c-6.8-14.3-20.6-24-36.4-25.6l1.4-58.9c0.9-19.2-13.4-35.8-32.5-37.6c-4.2-0.4-8,2.5-8.7,6.7
	l-23,145.3c-0.1,0.4-0.1,0.8-0.1,1.1c-0.3,19.9,5.9,39.5,17.5,55.7c0.1,0.1,0.2,0.3,0.3,0.4l56.4,68.2c3.9,4.7,5.8,10.7,5.3,16.7
	L96.1,429l-4.6,2.2c-4,1.9-5.7,6.7-3.8,10.7l23.6,49.6c1.9,4,6.7,5.7,10.7,3.8c0,0,0,0,0,0l108.8-51.8c4-1.9,5.7-6.7,3.8-10.7
	c0,0,0,0,0,0L210.9,383.2z M104.3,386.6l-56.2-68c-9.4-13.2-14.4-29.1-14.3-45.3l21.5-135.8c7,3.6,11.2,11,10.8,18.9
	c0,0.1,0,0.1,0,0.2l-1.5,60.7c-2.7,0.7-5.4,1.7-7.9,2.9c-4,1.9-5.7,6.7-3.8,10.7c0,0,0,0,0,0l35.4,74.3c1.9,4,6.6,5.7,10.6,3.8
	s5.7-6.6,3.8-10.6c0,0,0-0.1,0-0.1l-31.5-66.1c12.9-2.2,25.6,4.5,31.3,16.3l21.5,45.2c4.4,9.2,10.8,17.3,18.7,23.7l4.5,3.6
	c21.2,16.9,31.6,44,27.2,70.8l-61.9,29.5l0.5-6.4C114,404.5,110.8,394.5,104.3,386.6z M122.3,477.4l-16.7-35.1l94.4-44.9l16.7,35.1
	L122.3,477.4z"/>
</svg>
