<?xml version="1.0" encoding="UTF-8" standalone="no"?>
<!-- Generator: Adobe Illustrator 23.0.2, SVG Export Plug-In . SVG Version: 6.00 Build 0)  -->

<svg
   xmlns:dc="http://purl.org/dc/elements/1.1/"
   xmlns:cc="http://creativecommons.org/ns#"
   xmlns:rdf="http://www.w3.org/1999/02/22-rdf-syntax-ns#"
   xmlns:svg="http://www.w3.org/2000/svg"
   xmlns="http://www.w3.org/2000/svg"
   xmlns:sodipodi="http://sodipodi.sourceforge.net/DTD/sodipodi-0.dtd"
   xmlns:inkscape="http://www.inkscape.org/namespaces/inkscape"
   version="1.1"
   id="Layer_1"
   x="0px"
   y="0px"
   viewBox="0 0 52 52"
   style="enable-background:new 0 0 52 52;"
   xml:space="preserve"
   sodipodi:docname="plant.svg"
   inkscape:version="0.92.4 (5da689c313, 2019-01-14)"><metadata
   id="metadata893"><rdf:RDF><cc:Work
       rdf:about=""><dc:format>image/svg+xml</dc:format><dc:type
         rdf:resource="http://purl.org/dc/dcmitype/StillImage" /></cc:Work></rdf:RDF></metadata><defs
   id="defs891" /><sodipodi:namedview
   pagecolor="#ffffff"
   bordercolor="#666666"
   borderopacity="1"
   objecttolerance="10"
   gridtolerance="10"
   guidetolerance="10"
   inkscape:pageopacity="0"
   inkscape:pageshadow="2"
   inkscape:window-width="1850"
   inkscape:window-height="1016"
   id="namedview889"
   showgrid="false"
   inkscape:zoom="15.923077"
   inkscape:cx="26"
   inkscape:cy="26"
   inkscape:window-x="1990"
   inkscape:window-y="27"
   inkscape:window-maximized="1"
   inkscape:current-layer="Layer_1" />
<style
   type="text/css"
   id="style884">
	.st0{fill:#439A86;}
</style>
<path
   class="st0"
   d="M40.9,44.5c0-0.3,0.1-0.5,0.1-0.8c0-3.5-2.8-6.3-6.3-6.3c-0.5,0-1,0.1-1.5,0.2C31,35.9,28.5,35,25.9,35  c-0.5,0-1,0-1.4,0.1v-5.7c0,0,0-0.1,0-0.1c0,0,0-0.3,0-0.7v-4.9c0.6-1.2,2.6-2.4,4.3-3c0.3-0.1,0.5-0.2,0.8-0.3l0.9,0.9  c0.9,0.9,2.1,1.4,3.6,1.4c1.9,0,3.9-0.9,5.5-2.4c0.2-0.2,0.5-0.4,0.7-0.7c6.3-6.3,6.8-15.9,6.8-16.3c0-0.3-0.1-0.5-0.3-0.8  c-0.2-0.2-0.5-0.3-0.8-0.3c-0.4,0-10,0.5-16.3,6.8c-0.3,0.2-0.5,0.5-0.7,0.7c-2.7,2.9-3.2,6.8-1.1,9c-1,0.4-2.2,0.9-3.2,1.6  c-0.1-2.2-0.9-4.7-3.3-6.5c1.6-1.6,1.3-4.6-0.7-6.7c-0.1-0.2-0.3-0.3-0.5-0.5C15.9,2.3,9.2,2,8.9,2c-0.6,0-1,0.4-1,1c0,0,0,0,0,0.1  c0,0.3,0.4,7,4.8,11.5c0.2,0.2,0.3,0.3,0.5,0.5c1.2,1.1,2.7,1.7,4.1,1.7c1,0,2-0.4,2.7-1.1l0.3-0.3c3.6,2.4,2.7,6.5,2.4,7.5  c-0.2-0.3-0.5-0.6-0.9-0.9c-1.6-1.4-3.8-1.6-5.3-1.6c-1.3,0-2.3,0.2-2.3,0.2c-0.4,0.1-0.8,0.5-0.8,0.9c0,0.2-0.1,4.9,2.7,7.3  c1.6,1.4,3.8,1.6,5.3,1.6c0.4,0,0.8,0,1.1,0v5.1c-1.8,0.5-3.4,1.5-4.7,2.8c-1-0.7-2.2-1-3.4-1c-3,0-5.6,2.2-6.2,5  C6.2,44,5,46.3,4.9,49c0,0.6,0.4,1,1,1c0,0,0,0,0,0h37c0.3,0,0.6-0.1,0.8-0.4c0.2-0.2,0.2-0.6,0.2-0.9C43.4,47,42.3,45.5,40.9,44.5z  "
   id="path886"
   style="fill:#4cb27c;fill-opacity:1" />
</svg>