<?xml version="1.0" encoding="UTF-8" standalone="no"?>
<!-- Generator: Adobe Illustrator 23.0.2, SVG Export Plug-In . SVG Version: 6.00 Build 0)  -->

<svg
   xmlns:dc="http://purl.org/dc/elements/1.1/"
   xmlns:cc="http://creativecommons.org/ns#"
   xmlns:rdf="http://www.w3.org/1999/02/22-rdf-syntax-ns#"
   xmlns:svg="http://www.w3.org/2000/svg"
   xmlns="http://www.w3.org/2000/svg"
   xmlns:sodipodi="http://sodipodi.sourceforge.net/DTD/sodipodi-0.dtd"
   xmlns:inkscape="http://www.inkscape.org/namespaces/inkscape"
   version="1.1"
   id="Слой_1"
   x="0px"
   y="0px"
   viewBox="0 0 48 48"
   style="enable-background:new 0 0 48 48;"
   xml:space="preserve"
   sodipodi:docname="twitter.svg"
   inkscape:version="0.92.4 (5da689c313, 2019-01-14)"><metadata
   id="metadata3808"><rdf:RDF><cc:Work
       rdf:about=""><dc:format>image/svg+xml</dc:format><dc:type
         rdf:resource="http://purl.org/dc/dcmitype/StillImage" /></cc:Work></rdf:RDF></metadata><defs
   id="defs3806" /><sodipodi:namedview
   pagecolor="#ffffff"
   bordercolor="#666666"
   borderopacity="1"
   objecttolerance="10"
   gridtolerance="10"
   guidetolerance="10"
   inkscape:pageopacity="0"
   inkscape:pageshadow="2"
   inkscape:window-width="1850"
   inkscape:window-height="1016"
   id="namedview3804"
   showgrid="false"
   inkscape:zoom="17.25"
   inkscape:cx="12.985507"
   inkscape:cy="24"
   inkscape:window-x="1990"
   inkscape:window-y="27"
   inkscape:window-maximized="1"
   inkscape:current-layer="Слой_1" />
<style
   type="text/css"
   id="style3800">
	.st0{fill:#55A774;}
</style>
<path
   id="surface1"
   class="st0"
   d="M42,12.4c-1.4,0.6-2.8,1-4.2,1.2c1.5-0.9,2.7-2.4,3.2-4.1c-1.5,0.9-3,1.5-4.7,1.8  C34.9,9.8,33,9,30.9,9c-4.1,0-7.4,3.3-7.4,7.3c0,0.6,0.1,1.1,0.2,1.7c-5.9-0.3-11.5-3.1-15.2-7.7c-2,3.3-1,7.6,2.3,9.8  c-1.2,0-2.3-0.4-3.3-0.9v0.1c0,3.5,2.5,6.5,5.9,7.2c-0.6,0.2-1.3,0.3-1.9,0.3c-0.5,0-0.9-0.1-1.4-0.1c0.9,2.9,3.7,5,6.9,5.1  c-3.1,2.4-7,3.5-10.9,3c3.4,2.1,7.3,3.3,11.3,3.3c13.6,0,21-11.2,21-20.8c0-0.3,0-0.6,0-0.9C39.8,15.2,41,13.9,42,12.4"
   style="fill:#439a86;fill-opacity:1" />
</svg>