<?xml version="1.0" encoding="utf-8"?>
<!-- Generator: Adobe Illustrator 23.0.2, SVG Export Plug-In . SVG Version: 6.00 Build 0)  -->
<svg version="1.1" id="Слой_1" xmlns="http://www.w3.org/2000/svg" xmlns:xlink="http://www.w3.org/1999/xlink" x="0px" y="0px"
	 viewBox="0 0 512 512" style="enable-background:new 0 0 512 512;" xml:space="preserve">
<style type="text/css">
	.st0{fill:#55A774;}
</style>
<path class="st0" d="M226.3,216.4l-64.1-89.1c-1.5-2.1-3.9-3.3-6.5-3.2l0,0c-2.6,0-5,1.2-6.5,3.2l-64.1,89c-0.2,0.2-0.3,0.4-0.4,0.6
	c-13.2,22.7-13.1,50.3,0.4,73.8c22.1,39,71.6,52.6,110.6,30.5c12.8-7.3,23.4-17.8,30.6-30.6c13.4-23.4,13.6-50.9,0.3-73.5
	C226.6,216.8,226.5,216.6,226.3,216.4z M212.5,282.5c-17.7,31.3-57.4,42.4-88.7,24.8c-10.3-5.8-18.9-14.4-24.7-24.7
	C88.4,264,88.2,243,98.5,225.2l57.3-79.6l57.3,79.9C223.4,243.1,223.2,263.9,212.5,282.5z"/>
<path class="st0" d="M194.2,243.7c-4.4,0-8,3.6-8,8c-0.1,17-13.9,30.7-30.9,30.7c-4.4,0-8,3.6-8,8s3.6,8,8,8
	c25.8,0,46.8-20.8,46.9-46.7C202.2,247.3,198.6,243.7,194.2,243.7z"/>
<path class="st0" d="M425.3,356.4l-74.8-104.2c-1.5-2.1-3.9-3.3-6.5-3.2l0,0c-2.6,0-5,1.2-6.5,3.2l-74.8,103.9
	c-0.1,0.2-0.3,0.4-0.4,0.6c-15.2,26.1-15,57.8,0.5,84.8c25.4,44.9,82.4,60.6,127.3,35.2c14.7-8.4,26.9-20.5,35.2-35.3
	c15.5-27,15.6-58.6,0.4-84.5C425.6,356.8,425.4,356.6,425.3,356.4z M411.4,433.5c-21,37.2-68.2,50.4-105.4,29.4
	c-12.3-6.9-22.4-17.1-29.4-29.3c-12.8-22.2-13-47.2-0.7-68.5l68.1-94.6l68.1,94.9C424.3,386.6,424.1,411.4,411.4,433.5z"/>
<path class="st0" d="M388.8,388.8c-4.4,0-8,3.6-8,8c-0.1,20.6-16.8,37.2-37.4,37.2c-4.4,0-8,3.6-8,8s3.6,8,8,8
	c29.4,0,53.3-23.8,53.4-53.2C396.8,392.4,393.2,388.8,388.8,388.8z"/>
<path class="st0" d="M382,236c4.4,0,8-3.6,8-8v-18c0-4.4-3.6-8-8-8s-8,3.6-8,8v18C374,232.4,377.6,236,382,236z M382,180
	c4.4,0,8-3.6,8-8V78c0-4.4-3.6-8-8-8s-8,3.6-8,8v94C374,176.4,377.6,180,382,180z M382,56c4.4,0,8-3.6,8-8V31c0-4.4-3.6-8-8-8
	s-8,3.6-8,8v17C374,52.4,377.6,56,382,56z"/>
<path class="st0" d="M335,216c4.4,0,8-3.6,8-8v-81c0-4.4-3.6-8-8-8s-8,3.6-8,8v81C327,212.4,330.6,216,335,216z M335,96
	c4.4,0,8-3.6,8-8V60c0-4.4-3.6-8-8-8s-8,3.6-8,8v28C327,92.4,330.6,96,335,96z"/>
<path class="st0" d="M288,237c4.4,0,8-3.6,8-8v-41c0-4.4-3.6-8-8-8s-8,3.6-8,8v41C280,233.4,283.6,237,288,237z M288,166
	c4.4,0,8-3.6,8-8V53c0-4.4-3.6-8-8-8s-8,3.6-8,8v105C280,162.4,283.6,166,288,166z"/>
<path class="st0" d="M241,103c-4.4,0-8,3.6-8,8v71c0,4.4,3.6,8,8,8s8-3.6,8-8v-71C249,106.6,245.4,103,241,103z M241,33
	c-4.4,0-8,3.6-8,8v40c0,4.4,3.6,8,8,8s8-3.6,8-8V41C249,36.6,245.4,33,241,33z"/>
</svg>
